<?xml version="1.0" encoding="iso-8859-1"?>
<!-- Generator: Adobe Illustrator 17.1.0, SVG Export Plug-In . SVG Version: 6.00 Build 0)  -->
<!DOCTYPE svg PUBLIC "-//W3C//DTD SVG 1.1//EN" "http://www.w3.org/Graphics/SVG/1.1/DTD/svg11.dtd">
<svg xmlns="http://www.w3.org/2000/svg" xmlns:xlink="http://www.w3.org/1999/xlink" version="1.1" id="Capa_1" x="0px" y="0px" viewBox="0 0 210.128 210.128" style="enable-background:new 0 0 210.128 210.128;" xml:space="preserve" width="512px" height="512px">
<path d="M151.585,210.128H58.544c-9.803,0-17.778-7.975-17.778-17.778V17.778C40.765,7.975,48.74,0,58.544,0h93.041  c9.803,0,17.778,7.975,17.778,17.778V192.35C169.363,202.153,161.387,210.128,151.585,210.128z M58.544,6  c-6.495,0-11.778,5.284-11.778,11.778V192.35c0,6.495,5.284,11.778,11.778,11.778h93.041c6.494,0,11.778-5.284,11.778-11.778V17.778  c0-6.495-5.284-11.778-11.778-11.778H58.544z M105.064,200.169c-5.698,0-10.333-4.635-10.333-10.333s4.635-10.333,10.333-10.333  c5.697,0,10.333,4.636,10.333,10.333S110.761,200.169,105.064,200.169z M105.064,185.502c-2.39,0-4.334,1.944-4.334,4.333  c0,2.389,1.944,4.333,4.334,4.333s4.333-1.944,4.333-4.333C109.397,187.446,107.454,185.502,105.064,185.502z M155.814,176.874  h-101.5c-1.657,0-3-1.343-3-3V18.208c0-1.657,1.343-3,3-3h101.5c1.657,0,3,1.343,3,3v155.667  C158.814,175.531,157.471,176.874,155.814,176.874z M57.314,170.874h95.5V21.208h-95.5V170.874z M128.362,134.764  c-4.372,0-7.93-3.557-7.93-7.93c0-0.665,0.082-1.312,0.237-1.929h-15.396c0.155,0.618,0.237,1.264,0.237,1.929  c0,4.373-3.558,7.93-7.93,7.93s-7.929-3.557-7.929-7.93c0-0.874,0.142-1.715,0.404-2.502c-2.236-0.934-3.954-2.931-4.453-5.417  l-8.049-40.097c-0.001-0.007-0.002-0.014-0.004-0.021l-1.394-7.055c-0.23-1.115-1.246-1.942-2.41-1.942h-6.019c-1.657,0-3-1.343-3-3  s1.343-3,3-3h6.019c3.996,0,7.483,2.84,8.291,6.754l0.923,4.671h57.163c0.896,0,1.743,0.399,2.313,1.09  c0.569,0.69,0.802,1.599,0.633,2.478l-6.512,33.807c-0.272,1.412-1.508,2.433-2.946,2.433H90.944l0.542,2.703  c0.136,0.678,0.736,1.169,1.428,1.169h35.448c4.372,0,7.93,3.557,7.93,7.929C136.292,131.207,132.734,134.764,128.362,134.764z   M128.362,124.905c-1.064,0-1.93,0.865-1.93,1.929s0.865,1.93,1.93,1.93s1.93-0.866,1.93-1.93S129.427,124.905,128.362,124.905z   M97.581,124.905c-1.064,0-1.929,0.865-1.929,1.929s0.865,1.93,1.929,1.93s1.93-0.866,1.93-1.93S98.645,124.905,97.581,124.905z   M89.844,109.032h41.29l5.356-27.807H84.169L89.844,109.032z" fill="#c0a375"/>
<g>
</g>
<g>
</g>
<g>
</g>
<g>
</g>
<g>
</g>
<g>
</g>
<g>
</g>
<g>
</g>
<g>
</g>
<g>
</g>
<g>
</g>
<g>
</g>
<g>
</g>
<g>
</g>
<g>
</g>
</svg>
